<mxfile host="65bd71144e">
    <diagram id="Hyx2KwSfyTcDBe2Z9RFE" name="Page-1">
        <mxGraphModel dx="1031" dy="569" grid="0" gridSize="10" guides="1" tooltips="1" connect="1" arrows="1" fold="1" page="1" pageScale="1" pageWidth="850" pageHeight="1100" background="#ffffff" math="0" shadow="0">
            <root>
                <mxCell id="0"/>
                <mxCell id="1" parent="0"/>
                <mxCell id="2" value="&lt;font size=&quot;1&quot; color=&quot;#000000&quot;&gt;&lt;b style=&quot;font-size: 18px;&quot;&gt;COPINVOICE&lt;br&gt;(Next JS APP)&lt;br&gt;&lt;/b&gt;&lt;/font&gt;" style="rounded=0;whiteSpace=wrap;html=1;fillColor=#FFFFFF;fillStyle=solid;strokeColor=#6F0000;fontColor=#ffffff;" vertex="1" parent="1">
                    <mxGeometry x="213" y="461" width="212" height="125" as="geometry"/>
                </mxCell>
                <mxCell id="4" value="AUTH JS" style="rounded=1;whiteSpace=wrap;html=1;fillStyle=solid;strokeColor=#000000;fontSize=18;fontColor=#000000;fillColor=#FFFFFF;gradientColor=none;" vertex="1" parent="1">
                    <mxGeometry x="35" y="317" width="120" height="60" as="geometry"/>
                </mxCell>
                <mxCell id="5" value="" style="endArrow=none;html=1;fontSize=18;fontColor=#000000;strokeColor=#000000;exitX=0.009;exitY=0.406;exitDx=0;exitDy=0;exitPerimeter=0;" edge="1" parent="1" source="2" target="4">
                    <mxGeometry width="50" height="50" relative="1" as="geometry">
                        <mxPoint x="337" y="510" as="sourcePoint"/>
                        <mxPoint x="514" y="441" as="targetPoint"/>
                    </mxGeometry>
                </mxCell>
                <mxCell id="6" value="MAGIC LINKS" style="rounded=1;whiteSpace=wrap;html=1;fillStyle=solid;strokeColor=#000000;fontSize=18;fontColor=#000000;fillColor=#FFFFFF;gradientColor=none;" vertex="1" parent="1">
                    <mxGeometry x="30" y="163" width="120" height="60" as="geometry"/>
                </mxCell>
                <mxCell id="7" value="" style="endArrow=none;html=1;fontSize=18;fontColor=#000000;strokeColor=#000000;exitX=0.5;exitY=0;exitDx=0;exitDy=0;" edge="1" parent="1" source="4" target="6">
                    <mxGeometry width="50" height="50" relative="1" as="geometry">
                        <mxPoint x="347" y="520" as="sourcePoint"/>
                        <mxPoint x="252.53571428571422" y="382" as="targetPoint"/>
                    </mxGeometry>
                </mxCell>
                <mxCell id="8" value="MAIL TRAP" style="rounded=1;whiteSpace=wrap;html=1;fillStyle=solid;strokeColor=#2D7600;fontSize=18;fontColor=#ffffff;fillColor=#60a917;" vertex="1" parent="1">
                    <mxGeometry x="293" y="317" width="120" height="60" as="geometry"/>
                </mxCell>
                <mxCell id="9" value="" style="endArrow=none;html=1;fontSize=18;fontColor=#000000;strokeColor=#000000;entryX=1;entryY=0.5;entryDx=0;entryDy=0;exitX=0;exitY=0.5;exitDx=0;exitDy=0;" edge="1" parent="1" source="8" target="4">
                    <mxGeometry width="50" height="50" relative="1" as="geometry">
                        <mxPoint x="347" y="520" as="sourcePoint"/>
                        <mxPoint x="252.53571428571422" y="382" as="targetPoint"/>
                    </mxGeometry>
                </mxCell>
                <mxCell id="10" value="SEND INVOICE WITH PDF" style="text;html=1;align=center;verticalAlign=middle;resizable=0;points=[];autosize=1;strokeColor=none;fillColor=none;fontSize=18;fontColor=#000000;" vertex="1" parent="1">
                    <mxGeometry x="13" y="69" width="239" height="34" as="geometry"/>
                </mxCell>
                <mxCell id="11" value="" style="endArrow=none;html=1;fontSize=18;fontColor=#000000;strokeColor=#000000;exitX=0.5;exitY=0;exitDx=0;exitDy=0;" edge="1" parent="1" source="8" target="10">
                    <mxGeometry width="50" height="50" relative="1" as="geometry">
                        <mxPoint x="435" y="352" as="sourcePoint"/>
                        <mxPoint x="292" y="352" as="targetPoint"/>
                    </mxGeometry>
                </mxCell>
                <mxCell id="12" value="SEND UPDATED INVOICE&lt;br&gt;INFORMATIONS WITH PDF" style="text;html=1;align=center;verticalAlign=middle;resizable=0;points=[];autosize=1;strokeColor=none;fillColor=none;fontSize=18;fontColor=#000000;" vertex="1" parent="1">
                    <mxGeometry x="249" y="14" width="247" height="55" as="geometry"/>
                </mxCell>
                <mxCell id="13" value="" style="endArrow=none;html=1;fontSize=18;fontColor=#000000;strokeColor=#000000;exitX=0.704;exitY=-0.013;exitDx=0;exitDy=0;exitPerimeter=0;" edge="1" parent="1" source="8" target="12">
                    <mxGeometry width="50" height="50" relative="1" as="geometry">
                        <mxPoint x="506" y="307" as="sourcePoint"/>
                        <mxPoint x="295.49781659388645" y="110" as="targetPoint"/>
                    </mxGeometry>
                </mxCell>
                <mxCell id="14" value="OVERDUE EMAIL&amp;nbsp;&lt;br&gt;NO CODE BUILDER" style="text;html=1;align=center;verticalAlign=middle;resizable=0;points=[];autosize=1;strokeColor=none;fillColor=none;fontSize=18;fontColor=#000000;" vertex="1" parent="1">
                    <mxGeometry x="566" y="20" width="185" height="55" as="geometry"/>
                </mxCell>
                <mxCell id="15" value="" style="endArrow=none;html=1;fontSize=18;fontColor=#000000;strokeColor=#000000;exitX=1;exitY=0;exitDx=0;exitDy=0;entryX=0.286;entryY=1.001;entryDx=0;entryDy=0;entryPerimeter=0;" edge="1" parent="1" source="8" target="14">
                    <mxGeometry width="50" height="50" relative="1" as="geometry">
                        <mxPoint x="387.48" y="326.22" as="sourcePoint"/>
                        <mxPoint x="466.96412433780006" y="97" as="targetPoint"/>
                    </mxGeometry>
                </mxCell>
                <mxCell id="16" value="NODEMAILER" style="rounded=1;whiteSpace=wrap;html=1;fillStyle=solid;strokeColor=#000000;fontSize=18;fontColor=#000000;fillColor=#FFFFFF;gradientColor=none;" vertex="1" parent="1">
                    <mxGeometry x="653" y="116" width="151" height="69" as="geometry"/>
                </mxCell>
                <mxCell id="17" value="MAILTRAP SDK" style="rounded=1;whiteSpace=wrap;html=1;fillStyle=solid;strokeColor=#000000;fontSize=18;fontColor=#000000;fillColor=#FFFFFF;gradientColor=none;" vertex="1" parent="1">
                    <mxGeometry x="653" y="226" width="151" height="69" as="geometry"/>
                </mxCell>
                <mxCell id="18" value="" style="endArrow=none;html=1;fontSize=18;fontColor=#000000;strokeColor=#000000;exitX=1;exitY=0;exitDx=0;exitDy=0;entryX=0;entryY=0.75;entryDx=0;entryDy=0;" edge="1" parent="1" target="16">
                    <mxGeometry width="50" height="50" relative="1" as="geometry">
                        <mxPoint x="423.0000000000002" y="327.0000000000002" as="sourcePoint"/>
                        <mxPoint x="628.9099999999999" y="85.05499999999995" as="targetPoint"/>
                    </mxGeometry>
                </mxCell>
                <mxCell id="19" value="" style="endArrow=none;html=1;fontSize=18;fontColor=#000000;strokeColor=#000000;exitX=1;exitY=0.5;exitDx=0;exitDy=0;entryX=0;entryY=0.5;entryDx=0;entryDy=0;" edge="1" parent="1" source="8" target="17">
                    <mxGeometry width="50" height="50" relative="1" as="geometry">
                        <mxPoint x="433.0000000000002" y="337.0000000000002" as="sourcePoint"/>
                        <mxPoint x="621" y="236.7500000000001" as="targetPoint"/>
                    </mxGeometry>
                </mxCell>
                <mxCell id="21" value="JSPDF" style="rounded=1;whiteSpace=wrap;html=1;fillStyle=solid;strokeColor=#000000;fontSize=18;fontColor=#000000;fillColor=#FFFFFF;gradientColor=none;" vertex="1" parent="1">
                    <mxGeometry x="640" y="370" width="168" height="96" as="geometry"/>
                </mxCell>
                <mxCell id="22" value="" style="endArrow=none;html=1;fontSize=18;fontColor=#000000;strokeColor=#000000;exitX=1;exitY=0.25;exitDx=0;exitDy=0;entryX=0;entryY=0.5;entryDx=0;entryDy=0;" edge="1" parent="1" source="2" target="21">
                    <mxGeometry width="50" height="50" relative="1" as="geometry">
                        <mxPoint x="423" y="357" as="sourcePoint"/>
                        <mxPoint x="663" y="270.5" as="targetPoint"/>
                    </mxGeometry>
                </mxCell>
                <mxCell id="23" value="POSTGRES" style="rounded=1;whiteSpace=wrap;html=1;fillStyle=solid;strokeColor=#000000;fontSize=18;fontColor=#000000;fillColor=#FFFFFF;gradientColor=none;" vertex="1" parent="1">
                    <mxGeometry x="648" y="498" width="168" height="96" as="geometry"/>
                </mxCell>
                <mxCell id="24" value="" style="endArrow=none;html=1;fontSize=18;fontColor=#000000;strokeColor=#000000;exitX=1;exitY=0.75;exitDx=0;exitDy=0;entryX=0;entryY=0.5;entryDx=0;entryDy=0;" edge="1" parent="1" source="2" target="23">
                    <mxGeometry width="50" height="50" relative="1" as="geometry">
                        <mxPoint x="435" y="533.5" as="sourcePoint"/>
                        <mxPoint x="650" y="428.0000000000002" as="targetPoint"/>
                    </mxGeometry>
                </mxCell>
                <mxCell id="25" value="PRISMA ORM" style="rounded=1;whiteSpace=wrap;html=1;fillStyle=solid;strokeColor=#000000;fontSize=18;fontColor=#000000;fillColor=#FFFFFF;gradientColor=none;" vertex="1" parent="1">
                    <mxGeometry x="675" y="687" width="120" height="60" as="geometry"/>
                </mxCell>
                <mxCell id="26" value="" style="endArrow=none;html=1;fontSize=18;fontColor=#000000;strokeColor=#000000;exitX=0.5;exitY=0;exitDx=0;exitDy=0;entryX=0.5;entryY=1;entryDx=0;entryDy=0;" edge="1" parent="1" source="25" target="23">
                    <mxGeometry width="50" height="50" relative="1" as="geometry">
                        <mxPoint x="435" y="564.75" as="sourcePoint"/>
                        <mxPoint x="658" y="556" as="targetPoint"/>
                    </mxGeometry>
                </mxCell>
                <mxCell id="27" value="TAILWIND CSS" style="rounded=1;whiteSpace=wrap;html=1;fillStyle=solid;strokeColor=#000000;fontSize=18;fontColor=#000000;fillColor=#FFFFFF;gradientColor=none;" vertex="1" parent="1">
                    <mxGeometry x="525" y="825" width="168" height="96" as="geometry"/>
                </mxCell>
                <mxCell id="28" value="SHADCN/UI" style="rounded=1;whiteSpace=wrap;html=1;fillStyle=solid;strokeColor=#000000;fontSize=18;fontColor=#000000;fillColor=#FFFFFF;gradientColor=none;" vertex="1" parent="1">
                    <mxGeometry x="224" y="844" width="168" height="96" as="geometry"/>
                </mxCell>
                <mxCell id="29" value="" style="endArrow=none;html=1;fontSize=18;fontColor=#000000;strokeColor=#000000;exitX=0.948;exitY=1.034;exitDx=0;exitDy=0;entryX=0;entryY=0;entryDx=0;entryDy=0;exitPerimeter=0;" edge="1" parent="1" source="2" target="27">
                    <mxGeometry width="50" height="50" relative="1" as="geometry">
                        <mxPoint x="435" y="564.75" as="sourcePoint"/>
                        <mxPoint x="658" y="556" as="targetPoint"/>
                    </mxGeometry>
                </mxCell>
                <mxCell id="30" value="" style="endArrow=none;html=1;fontSize=18;fontColor=#000000;strokeColor=#000000;exitX=0.576;exitY=1.025;exitDx=0;exitDy=0;entryX=0.5;entryY=0;entryDx=0;entryDy=0;exitPerimeter=0;" edge="1" parent="1" source="2" target="28">
                    <mxGeometry width="50" height="50" relative="1" as="geometry">
                        <mxPoint x="423.9759999999999" y="600.25" as="sourcePoint"/>
                        <mxPoint x="535" y="835" as="targetPoint"/>
                    </mxGeometry>
                </mxCell>
            </root>
        </mxGraphModel>
    </diagram>
</mxfile>